# xmcd
#
# Track frame offsets: 
#        150
#        23499
#        33248
#        55417
#        78378
#        99876
#        118752
#        142506
#        161289
#        176754
#        192761
#        215627
#        235362
#        250500
#        270795
#
# Disc length: 3840 seconds
#
# Revision: 0
# Processed by: cddbd v1.5.1PL2 Copyright (c) Steve Scherf et al.
# Submitted via: ExactAudioCopy v0.95b3
#
DISCID=b20efe0f
DTITLE=Magda Hiller - Icing On The Cake
DYEAR=2006
DGENRE=Country
TTITLE0=Neighborhood's Goin Down
TTITLE1=Mindless
TTITLE2=If That Ain't Enough
TTITLE3=Cry
TTITLE4=Somethin' Special
TTITLE5=No One Celebrates
TTITLE6=East Coast Express
TTITLE7=Biddy Ditty
TTITLE8=Dog 'n' Bone
TTITLE9=327
TTITLE10=Carry Me Away
TTITLE11=Irene
TTITLE12=Foot In Mouth
TTITLE13=2 Daddy-O's
TTITLE14=Wyatt's Song
EXTD=
EXTT0=
EXTT1=
EXTT2=
EXTT3=
EXTT4=
EXTT5=
EXTT6=
EXTT7=
EXTT8=
EXTT9=
EXTT10=
EXTT11=
EXTT12=
EXTT13=
EXTT14=
PLAYORDER=
